<svg version="1.1" xmlns="http://www.w3.org/2000/svg" xmlns:xlink="http://www.w3.org/1999/xlink" width="128px" height="128px" viewBox="0,0,256,256"><g fill="#ffffff" fill-rule="nonzero" stroke="none" stroke-width="1" stroke-linecap="butt" stroke-linejoin="miter" stroke-miterlimit="10" stroke-dasharray="" stroke-dashoffset="0" font-family="none" font-weight="none" font-size="none" text-anchor="none" style="mix-blend-mode: normal"><g transform="scale(2,2)"><g id="row2_1_"><g id="_x36__3_" visibility="hidden"><g id="transparent"><g><path d="M64,0.3c-35.3,0 -64,28.5 -64,63.7c0,35.2 28.7,63.7 64,63.7c35.3,0 64,-28.5 64,-63.7c0,-35.2 -28.7,-63.7 -64,-63.7zM64,121.3c-31.8,0 -57.6,-25.6 -57.6,-57.3c0,-31.7 25.8,-57.3 57.6,-57.3c12.1,0 23.4,3.7 32.7,10.1c13.7,9.4 23.1,24.5 24.7,41.8c0,0.5 0.1,9.8 0,10.7c-2.7,29.2 -27.4,52 -57.4,52zM60.8,32.2c-14.5,0 -19.1,13.3 -19.2,25.5h9.6c-0.2,-8.8 0.7,-15.9 9.6,-15.9c6.4,0 9.6,2.7 9.6,9.6c0,4.4 -3.4,6.6 -6.4,9.6c-6.2,6 -5.7,10.4 -6,18.7h8.4c0.3,-7.5 0.2,-7.3 6.4,-13.9c4.2,-4.1 7.1,-8.2 7.1,-14.5c0.1,-10.1 -5.3,-19.1 -19.1,-19.1zM64.1,86.3c-3.6,0 -6.4,2.9 -6.4,6.4c0,3.5 2.9,6.4 6.4,6.4c3.6,0 6.4,-2.9 6.4,-6.4c0,-3.6 -2.9,-6.4 -6.4,-6.4z"></path></g></g></g><g id="_x35__3_" visibility="hidden"><g id="down_1_"><g><path d="M64,0.3c-35.3,0 -64,28.5 -64,63.7c0,35.2 28.7,63.7 64,63.7c35.3,0 64,-28.5 64,-63.7c0,-35.2 -28.7,-63.7 -64,-63.7zM64,121.3c-31.8,0 -57.6,-25.6 -57.6,-57.3c0,-31.7 25.8,-57.3 57.6,-57.3c31.8,0 57.6,25.7 57.6,57.3c0,31.7 -25.8,57.3 -57.6,57.3zM85.7,58.1l-15.3,12.2v-28.6c0,-2.2 -2.3,-3.2 -4.4,-3.2h-4c-2.2,0 -3.9,1.8 -3.9,3.9v28.4l-15.8,-12.7c-2.2,0 -3.9,1.8 -3.9,3.9v7.1l25.6,26.7l25.6,-26.7v-7.1c0,-2.2 -1.8,-3.9 -3.9,-3.9z"></path></g></g></g><g id="_x34__3_" visibility="hidden"><g id="up"><g><path d="M64,0.3c-35.3,0 -64,28.5 -64,63.7c0,35.2 28.7,63.7 64,63.7c35.3,0 64,-28.5 64,-63.7c0,-35.2 -28.7,-63.7 -64,-63.7zM64,121.3c-31.8,0 -57.6,-25.6 -57.6,-57.3c0,-31.7 25.8,-57.3 57.6,-57.3c31.8,0 57.6,25.7 57.6,57.3c0,31.7 -25.8,57.3 -57.6,57.3zM38.4,58.9v7.1c0,2.2 1.8,3.9 3.9,3.9l15.3,-12.2v28.7c0,2.2 2.3,3.2 4.4,3.2h4c2.2,0 3.9,-1.8 3.9,-3.9v-28.5l15.8,12.7c2.2,0 3.9,-1.8 3.9,-3.9v-7.1l-25.6,-26.7z"></path></g></g></g><g id="_x33__3_"><g id="right_1_"><g><path d="M64,0.3c-35.2,0 -63.7,28.5 -63.7,63.7c0,35.2 28.5,63.7 63.7,63.7c35.2,0 63.7,-28.5 63.7,-63.7c0,-35.2 -28.5,-63.7 -63.7,-63.7zM64,121.3c-31.7,0 -57.3,-25.6 -57.3,-57.3c0,-31.7 25.6,-57.3 57.3,-57.3c31.7,0 57.3,25.7 57.3,57.3c0,31.7 -25.6,57.3 -57.3,57.3zM62,38.5c-2.2,0 -3.9,1.8 -3.9,3.9l12.2,15.2h-28.6c-2.2,0 -3.2,2.2 -3.2,4.4v4c0,2.2 1.8,3.9 3.9,3.9h28.4l-12.7,15.7c0,2.2 1.8,3.9 3.9,3.9h7.1l26.7,-25.5l-26.7,-25.5z"></path></g></g></g><g id="_x32__4_" visibility="hidden"><g id="left_1_"><g><path d="M64,0.3c-35.3,0 -64,28.5 -64,63.7c0,35.2 28.7,63.7 64,63.7c35.3,0 64,-28.5 64,-63.7c0,-35.2 -28.7,-63.7 -64,-63.7zM64,121.3c-31.8,0 -57.6,-25.6 -57.6,-57.3c0,-31.7 25.8,-57.3 57.6,-57.3c31.8,0 57.6,25.7 57.6,57.3c0,31.7 -25.8,57.3 -57.6,57.3zM86.4,57.6h-28.8l12.3,-15.2c0,-2.2 -1.8,-3.9 -3.9,-3.9h-7.1l-26.9,25.5l26.8,25.5h7.2c2.2,0 3.9,-1.8 3.9,-3.9l-12.8,-15.7h28.6c2.2,0 3.9,-1.8 3.9,-3.9v-4c0,-2.1 -1,-4.4 -3.2,-4.4z"></path></g></g></g><g id="_x31__4_" visibility="hidden"><g id="left_3_"><g><path d="M64,0.3c-35.3,0 -64,28.5 -64,63.7c0,35.2 28.7,63.7 64,63.7c35.3,0 64,-28.5 64,-63.7c0,-35.2 -28.7,-63.7 -64,-63.7zM64,121.3c-31.8,0 -57.6,-25.6 -57.6,-57.3c0,-31.7 25.8,-57.3 57.6,-57.3c31.8,0 57.6,25.7 57.6,57.3c0,31.7 -25.8,57.3 -57.6,57.3zM65.3,38.5l-23.7,25.5l23.6,25.5h13.5l-24.3,-25.5l24.4,-25.5z"></path></g></g></g></g><g id="row1_1_" visibility="hidden"><g id="_x36__2_"><g id="plus_transparent"><g><path d="M64,0.3c-35.3,0 -64,28.5 -64,63.7c0,35.2 28.7,63.7 64,63.7c35.3,0 64,-28.5 64,-63.7c0,-35.2 -28.7,-63.7 -64,-63.7zM64,121.3c-31.8,0 -57.6,-25.6 -57.6,-57.3c0,-31.7 25.8,-57.3 57.6,-57.3c31.8,0 57.6,25.7 57.6,57.3c0,31.7 -25.8,57.3 -57.6,57.3zM84.8,60.8h-14.4v-14.3c0,-2.6 -2.2,-4.8 -4.8,-4.8c-2.7,0 -4.8,2.1 -4.8,4.8v14.3h-14.4c-2.7,0 -4.8,2.1 -4.8,4.8c0,2.6 2.1,4.8 4.8,4.8h14.4v14.3c0,2.6 2.1,4.8 4.8,4.8c2.6,0 4.8,-2.1 4.8,-4.8v-14.3h14.4c2.6,0 4.8,-2.1 4.8,-4.8c0,-2.6 -2.1,-4.8 -4.8,-4.8z"></path></g></g></g><g id="_x35__2_"><g id="error_transparent_copy"><g><path d="M64,0.3c-35.3,0 -64,28.5 -64,63.7c0,35.2 28.7,63.7 64,63.7c35.3,0 64,-28.5 64,-63.7c0,-35.2 -28.7,-63.7 -64,-63.7zM64,121.3c-31.8,0 -57.6,-25.6 -57.6,-57.3c0,-31.7 25.8,-57.3 57.6,-57.3c31.8,0 57.6,25.7 57.6,57.3c0,31.7 -25.8,57.3 -57.6,57.3zM87.2,44.5c-0.9,-0.9 -2.3,-0.9 -3.2,0l-28.8,28.7l-13.8,-13.7c-0.9,-0.9 -2.3,-0.9 -3.2,0l-4.8,4.8c-0.9,0.9 -0.9,2.3 0,3.2l15.3,15.3v0l3.3,3.3l0.8,0.8v0l0.7,0.7c0.9,0.9 2.3,0.9 3.2,0l35.3,-35.1c0.9,-0.9 0.9,-2.3 0,-3.2z"></path></g></g></g><g id="_x34__2_"><g id="error_transparent"><g><path d="M64,0.3c-35.3,0 -64,28.5 -64,63.7c0,35.2 28.7,63.7 64,63.7c35.3,0 64,-28.5 64,-63.7c0,-35.2 -28.7,-63.7 -64,-63.7zM64,121.3c-31.8,0 -57.6,-25.6 -57.6,-57.3c0,-31.7 25.8,-57.3 57.6,-57.3c31.8,0 57.6,25.7 57.6,57.3c0,31.7 -25.8,57.3 -57.6,57.3zM85.9,48.1l-4.9,-4.8c-0.9,-0.9 -2.3,-0.9 -3.2,0l-13.8,13.7l-13.8,-13.7c-0.9,-0.9 -2.3,-0.9 -3.2,0l-4.9,4.8c-0.9,0.9 -0.9,2.3 0,3.2l13.8,13.7l-13.8,13.8c-0.9,0.9 -0.9,2.3 0,3.2l4.9,4.8c0.9,0.9 2.3,0.9 3.2,0l13.8,-13.7l13.8,13.7c0.9,0.9 2.3,0.9 3.2,0l4.9,-4.8c0.9,-0.9 0.9,-2.3 0,-3.2l-13.8,-13.8l13.8,-13.7c0.9,-0.9 0.9,-2.3 0,-3.2z"></path></g></g></g><g id="_x33__2_"><g id="alert_transparent"><g><path d="M64,32.2c-4.4,0 -8,3.3 -8,7.3v24.8c0,4.1 3.6,7.3 8,7.3c4.4,0 8,-3.3 8,-7.3v-24.8c0,-4.1 -3.6,-7.3 -8,-7.3zM64,0.3c-35.3,0 -64,28.5 -64,63.7c0,35.2 28.7,63.7 64,63.7c35.3,0 64,-28.5 64,-63.7c0,-35.2 -28.7,-63.7 -64,-63.7zM64,121.3c-31.8,0 -57.6,-25.6 -57.6,-57.3c0,-31.7 25.8,-57.3 57.6,-57.3c31.8,0 57.6,25.7 57.6,57.3c0,31.7 -25.8,57.3 -57.6,57.3zM64,81.2c-4.4,0 -8,3.3 -8,7.3c0,4 3.6,7.3 8,7.3c4.4,0 8,-3.3 8,-7.3c0,-4 -3.6,-7.3 -8,-7.3z"></path></g></g></g><g id="_x32__3_"><g id="minus_transparent"><g><path d="M64,0.3c-35.3,0 -64,28.5 -64,63.7c0,35.2 28.7,63.7 64,63.7c35.3,0 64,-28.5 64,-63.7c0,-35.2 -28.7,-63.7 -64,-63.7zM64,121.3c-31.8,0 -57.6,-25.6 -57.6,-57.3c0,-31.7 25.8,-57.3 57.6,-57.3c31.8,0 57.6,25.7 57.6,57.3c0,31.7 -25.8,57.3 -57.6,57.3zM81.6,60.8h-38.4c-2.7,0 -4.8,2.1 -4.8,4.8c0,2.6 2.2,4.8 4.8,4.8h38.4c2.6,0 4.8,-2.1 4.8,-4.8c0,-2.6 -2.1,-4.8 -4.8,-4.8z"></path></g></g></g><g id="_x31__3_"><g id="_x32__2_"><g><path d="M64,0c-35.3,0 -64,28.7 -64,64c0,35.3 28.7,64 64,64c35.3,0 64,-28.7 64,-64c0,-35.3 -28.7,-64 -64,-64zM64,121.6c-31.8,0 -57.6,-25.8 -57.6,-57.6c0,-31.8 25.8,-57.6 57.6,-57.6c31.8,0 57.6,25.8 57.6,57.6c0,31.8 -25.8,57.6 -57.6,57.6zM49.2,38.4l24.4,25.6l-24.4,25.6h13.5l23.7,-25.6l-23.7,-25.6z"></path></g></g></g></g></g></g></svg>